# xmcd
#
# Track frame offsets: 
#        150
#        26049
#        40025
#        64834
#        78518
#        104697
#        129017
#        149224
#        163124
#        183968
#
# Disc length: 2785 seconds
#
# Revision: 0
# Processed by: cddbd v1.5.2PL0 Copyright (c) Steve Scherf et al.
# Submitted via: ExactAudioCopy v0.99pb4
#
DISCID=8a0adf0a
DTITLE=Van Morrison - Live at Austin City Limits Festival [CD1]
DYEAR=2006
DGENRE=R&B
TTITLE0=Back On Top
TTITLE1=Big Blue Diamonds
TTITLE2=Playhouse
TTITLE3=Days Like This
TTITLE4=Muleskinner Blues
TTITLE5=In The Midnight
TTITLE6=Bright Side Of The Road
TTITLE7=Don't You Make Me High
TTITLE8=Cleaning Windows
TTITLE9=I Can't Stop Loving You
EXTD=
EXTT0=
EXTT1=
EXTT2=
EXTT3=
EXTT4=
EXTT5=
EXTT6=
EXTT7=
EXTT8=
EXTT9=
PLAYORDER=
